<svg width="26" height="26" viewBox="0 0 26 26" fill="none" xmlns="http://www.w3.org/2000/svg">
<ellipse cx="13.3379" cy="13.3334" rx="12.4988" ry="12.6437" fill="white"/>
<path d="M18.963 9.42558C18.963 8.47894 18.1373 7.64368 17.2015 7.64368H10.1006C9.1648 7.64368 8.33911 8.47894 8.33911 9.42558V16.6089C8.33911 17.5555 9.1648 18.3908 10.1006 18.3908H13.6786V14.3258H12.3575V12.5439H13.6786V11.82C13.6786 10.595 14.5593 9.53695 15.6602 9.53695H17.0914V11.3189H15.6602C15.4951 11.3189 15.33 11.4859 15.33 11.82V12.5439H17.0914V14.3258H15.33V18.3908H17.2015C18.1373 18.3908 18.963 17.5555 18.963 16.6089V9.42558Z" fill="#8253D8"/>
</svg>
