<svg width="90" height="90" viewBox="0 0 90 90" fill="none" xmlns="http://www.w3.org/2000/svg">
<circle cx="45" cy="45" r="45" fill="url(#paint0_linear_12327_5)"/>
<path d="M37.517 26.2578L66.4858 42.9828C67.6535 43.657 67.6535 45.343 66.4858 46.0173L37.517 62.7423C36.3493 63.4165 34.889 62.5735 34.889 61.225V27.775C34.889 26.4265 36.3485 25.5835 37.517 26.2578Z" fill="white"/>
<path d="M66.4858 42.9828L37.5171 26.2578C37.3423 26.1573 37.1616 26.1003 36.9801 26.0635L64.9858 42.2328C66.1536 42.907 66.1536 44.593 64.9858 45.2673L36.0171 61.9923C35.7553 62.143 35.4801 62.2083 35.2086 62.218C35.7006 62.9215 36.6793 63.2253 37.5171 62.7423L66.4858 46.0173C67.6536 45.343 67.6536 43.657 66.4858 42.9828Z" fill="white"/>
<path d="M37.517 26.2578L66.4858 42.9828C67.6535 43.657 67.6535 45.343 66.4858 46.0173L37.517 62.7423C36.3493 63.4165 34.889 62.5735 34.889 61.225V27.775C34.889 26.4265 36.3485 25.5835 37.517 26.2578Z" stroke="white" stroke-miterlimit="10"/>
<defs>
<linearGradient id="paint0_linear_12327_5" x1="45" y1="0" x2="45" y2="90" gradientUnits="userSpaceOnUse">
<stop stop-color="#8253D8"/>
<stop offset="1" stop-color="#D05DDE"/>
</linearGradient>
</defs>
</svg>
