<svg width="26" height="26" viewBox="0 0 26 26" fill="none" xmlns="http://www.w3.org/2000/svg">
<ellipse cx="13.3339" cy="13.3334" rx="12.4988" ry="12.6437" fill="white"/>
<path d="M17.4481 8.27588H9.8471C8.98893 8.27588 8.33508 8.93724 8.33508 9.80528V17.4936C8.33508 18.3616 8.98893 19.023 9.8471 19.023H17.4481C18.3062 19.023 18.9601 18.3616 18.9601 17.4936V9.80528C18.9601 8.93724 18.3062 8.27588 17.4481 8.27588ZM13.6476 16.8736C15.4048 16.8736 16.8351 15.4682 16.8351 13.7734C16.8351 13.4841 16.7942 13.1534 16.7125 12.9054H17.6115V17.2869C17.6115 17.4936 17.4481 17.7003 17.2029 17.7003H10.0923C9.88797 17.7003 9.68364 17.5349 9.68364 17.2869V12.8641H10.6235C10.5418 13.1534 10.5009 13.4428 10.5009 13.7321C10.4601 15.4682 11.8904 16.8736 13.6476 16.8736ZM13.6476 15.6335C12.5034 15.6335 11.6043 14.7242 11.6043 13.6081C11.6043 12.4921 12.5034 11.5827 13.6476 11.5827C14.7918 11.5827 15.6909 12.4921 15.6909 13.6081C15.6909 14.7655 14.7918 15.6335 13.6476 15.6335ZM17.5707 11.2107C17.5707 11.4587 17.3663 11.6654 17.1211 11.6654H15.9769C15.7317 11.6654 15.5274 11.4587 15.5274 11.2107V10.0946C15.5274 9.84661 15.7317 9.63994 15.9769 9.63994H17.1211C17.3663 9.63994 17.5707 9.84661 17.5707 10.0946V11.2107Z" fill="#8253D8"/>
</svg>
