<svg width="26" height="26" viewBox="0 0 26 26" fill="none" xmlns="http://www.w3.org/2000/svg">
<ellipse cx="13.3421" cy="13.3334" rx="12.4988" ry="12.6437" fill="white"/>
<path d="M19.9672 10.1092C19.5297 10.2989 19.0298 10.4253 18.5298 10.4885C19.0298 10.1724 19.4672 9.6667 19.6547 9.09774C19.1547 9.41383 18.6548 9.60349 18.0298 9.72992C17.5924 9.22417 16.9049 8.90808 16.2175 8.90808C14.8426 8.90808 13.7177 10.046 13.7177 11.4368C13.7177 11.6265 13.7177 11.8161 13.7802 12.0058C11.7179 11.8793 9.84307 10.8678 8.59318 9.35061C8.4057 9.72992 8.28071 10.1724 8.28071 10.615C8.28071 11.5 8.71817 12.2587 9.40561 12.7012C8.96815 12.7012 8.59318 12.5747 8.28071 12.3851C8.28071 13.5862 9.15563 14.661 10.2805 14.8506C10.093 14.9138 9.84307 14.9138 9.59309 14.9138C9.40561 14.9138 9.28062 14.9138 9.09314 14.8506C9.40561 15.8621 10.343 16.6207 11.4679 16.6207C10.593 17.3161 9.5306 17.6954 8.34321 17.6954C8.15572 17.6954 7.96824 17.6954 7.71826 17.6322C8.84316 18.3276 10.1555 18.7702 11.5929 18.7702C16.2175 18.7702 18.7173 14.9138 18.7173 11.5633V11.2472C19.2172 11.0575 19.6547 10.615 19.9672 10.1092Z" fill="#8253D8"/>
</svg>
